{"title":"Sky.Angel.47.XXX.DVDRip.XviD","uid":8990579,"size":733513704,"categoryP":"porn","categoryS":"movies","magnet":"?xt=urn:btih:30091f119961f1318737fb67f81cf31cb5412ee2&amp;dn=Sky.Angel.47.XXX.DVDRip.XviD&amp;tr=udp%3A%2F%2Ftracker.openbittorrent.com%3A80&amp;tr=udp%3A%2F%2Fopen.demonii.com%3A1337&amp;tr=udp%3A%2F%2Ftracker.coppersurfer.tk%3A6969&amp;tr=udp%3A%2F%2Fexodus.desync.com%3A6969","seeders":0,"leechers":0,"uploader":null,"files":2,"time":1380771884,"description":" &lt;a href=&quot;http://www.hostpornpics.net/pornmg/share.php?id=D8D9_524CCB9D&quot; rel=&quot;nofollow&quot; target=&quot;_NEW&quot;&gt;http://www.hostpornpics.net/pornmg/share.php?id=D8D9_524CCB9D&lt;/a&gt;\n\n\nVideo\nFormat: MPEG-4 Visual\nFormat profile: Streaming Video@L1\nFormat settings, BVOP: Yes\nFormat settings, QPel: No\nFormat settings, GMC: No warppoints\nFormat settings, Matrix: Default\nCodec ID: XVID\nCodec ID/Hint: XviD\nDuration: 1h 9mn\nBit rate: 1 258 Kbps\nWidth: 512 pixels\nHeight: 288 pixels\nDisplay aspect ratio: 16/9\nFrame rate: 29.970 fps\nResolution: 24 bits\nColorimetry: 4:2:0\nScan type: Progressive\nBits/(Pixel*Frame): 0.285\nStream size: 630 MiB (90%)\nWriting library: XviD 1.1.2 (UTC 2006-11-01)\n\nAudio\nFormat: MPEG Audio\nFormat version: Version 1\nFormat profile: Layer 3\nCodec ID: 55\nCodec ID/Hint: MP3\nDuration: 1h 9mn\nBit rate mode: Variable\nBit rate: 125 Kbps\nChannel(s): 2 channels\nSampling rate: 48.0 KHz\nResolution: 16 bits\nStream size: 62.6 MiB (9%)\nAlignment: Aligned on interleaves\nInterleave, duration: 24 ms (0.72 video frame)\nInterleave, preload duration: 470 ms","torrent":{"xt":"urn:btih:30091f119961f1318737fb67f81cf31cb5412ee2","amp;dn":"Sky.Angel.47.XXX.DVDRip.XviD","amp;tr":["udp%3A%2F%2Ftracker.openbittorrent.com%3A80","udp%3A%2F%2Fopen.demonii.com%3A1337","udp%3A%2F%2Ftracker.coppersurfer.tk%3A6969","udp%3A%2F%2Fexodus.desync.com%3A6969"],"infoHash":"30091f119961f1318737fb67f81cf31cb5412ee2","infoHashBuffer":{"type":"Buffer","data":[48,9,31,17,153,97,241,49,135,55,251,103,248,28,243,28,181,65,46,226]},"announce":[],"urlList":[]}}